<svg width="140" height="20" viewBox="0 0 140 20" fill="none" xmlns="http://www.w3.org/2000/svg">
<path d="M10 0L13.09 6.26L20 7.27L15 12.14L16.18 19.02L10 15.77L3.82 19.02L5 12.14L0 7.27L6.91 6.26L10 0Z" fill="#F6DE00"/>
<path d="M40 0L43.09 6.26L50 7.27L45 12.14L46.18 19.02L40 15.77L33.82 19.02L35 12.14L30 7.27L36.91 6.26L40 0Z" fill="#F6DE00"/>
<path d="M70 0L73.09 6.26L80 7.27L75 12.14L76.18 19.02L70 15.77L63.82 19.02L65 12.14L60 7.27L66.91 6.26L70 0Z" fill="#F6DE00"/>
<path d="M100 0L103.09 6.26L110 7.27L105 12.14L106.18 19.02L100 15.77L93.82 19.02L95 12.14L90 7.27L96.91 6.26L100 0Z" fill="#F6DE00"/>
<path d="M130 0L133.09 6.26L140 7.27L135 12.14L136.18 19.02L130 15.77L123.82 19.02L125 12.14L120 7.27L126.91 6.26L130 0Z" fill="#F6DE00"/>
</svg>
